<svg xmlns="http://www.w3.org/2000/svg" width="720" height="860" viewBox="0 0 560 680">
  <defs>
    <linearGradient id="bg" x1="0" x2="1" y1="0" y2="1">
      <stop offset="0" stop-color="#0f172a"/>
      <stop offset=".58" stop-color="#f8fafc"/>
      <stop offset="1" stop-color="#ef4444"/>
    </linearGradient>
    <filter id="shadow" x="-20%" y="-20%" width="140%" height="140%">
      <feDropShadow dx="0" dy="22" stdDeviation="20" flood-color="#0f172a" flood-opacity=".18"/>
    </filter>
  </defs>
  <rect width="560" height="680" rx="34" fill="#f4f4f5"/>
  <rect x="28" y="28" width="504" height="470" rx="30" fill="url(#bg)"/>
  <g filter="url(#shadow)">
      <path d="M112 250c70 8 112-18 154-54 24 28 72 43 138 45 37 1 60 17 65 46H86c3-27 12-39 26-37Z" fill="white" opacity=".96"/>
      <path d="M148 235c42 4 78-7 112-34" stroke="#ef4444" stroke-width="12" stroke-linecap="round"/>
      <path d="M283 210c35 28 76 39 123 37" stroke="#ef4444" stroke-width="10" stroke-linecap="round" opacity=".78"/>
      <path d="M106 290h365" stroke="#0f172a" stroke-width="8" stroke-linecap="round" opacity=".82"/></g>
  <rect x="54" y="54" width="132" height="34" rx="17" fill="#111827" opacity=".86"/>
  <text x="120" y="77" text-anchor="middle" font-family="Arial, sans-serif" font-size="17" font-weight="800" fill="white">DEWU VERIFIED</text>
  <text x="54" y="552" font-family="Arial, sans-serif" font-size="25" font-weight="900" fill="#09090b">Jordan</text>
  <text x="54" y="590" font-family="Arial, sans-serif" font-size="34" font-weight="900" fill="#09090b">AJ1 Low OG</text>
  <text x="54" y="626" font-family="Arial, sans-serif" font-size="24" font-weight="700" fill="#71717a">Black Toe</text>
  <circle cx="476" cy="584" r="38" fill="#1ee8d6"/>
  <text x="476" y="592" text-anchor="middle" font-family="Arial, sans-serif" font-size="18" font-weight="900" fill="#09090b">95</text>
</svg>