<svg xmlns="http://www.w3.org/2000/svg" width="720" height="860" viewBox="0 0 560 680">
  <defs>
    <linearGradient id="bg" x1="0" x2="1" y1="0" y2="1">
      <stop offset="0" stop-color="#020617"/>
      <stop offset=".58" stop-color="#f8fafc"/>
      <stop offset="1" stop-color="#14b8a6"/>
    </linearGradient>
    <filter id="shadow" x="-20%" y="-20%" width="140%" height="140%">
      <feDropShadow dx="0" dy="22" stdDeviation="20" flood-color="#0f172a" flood-opacity=".18"/>
    </filter>
  </defs>
  <rect width="560" height="680" rx="34" fill="#f4f4f5"/>
  <rect x="28" y="28" width="504" height="470" rx="30" fill="url(#bg)"/>
  <g filter="url(#shadow)">
      <path d="M164 120 228 88h104l64 32 54 180-58 20-32-103v175H200V217l-32 103-58-20 54-180Z" fill="white" opacity=".95"/>
      <path d="M228 88c18 38 38 58 52 60 14-2 34-22 52-60" fill="#14b8a6" opacity=".88"/>
      <path d="M280 154v222" stroke="#111827" stroke-width="7" opacity=".5"/>
      <path d="M216 206h45M300 206h45" stroke="#14b8a6" stroke-width="10" stroke-linecap="round"/></g>
  <rect x="54" y="54" width="132" height="34" rx="17" fill="#111827" opacity=".86"/>
  <text x="120" y="77" text-anchor="middle" font-family="Arial, sans-serif" font-size="17" font-weight="800" fill="white">DEWU VERIFIED</text>
  <text x="54" y="552" font-family="Arial, sans-serif" font-size="25" font-weight="900" fill="#09090b">Arc'teryx</text>
  <text x="54" y="590" font-family="Arial, sans-serif" font-size="34" font-weight="900" fill="#09090b">Beta Jacket</text>
  <text x="54" y="626" font-family="Arial, sans-serif" font-size="24" font-weight="700" fill="#71717a">GORE-TEX</text>
  <circle cx="476" cy="584" r="38" fill="#1ee8d6"/>
  <text x="476" y="592" text-anchor="middle" font-family="Arial, sans-serif" font-size="18" font-weight="900" fill="#09090b">95</text>
</svg>