<svg xmlns="http://www.w3.org/2000/svg" width="720" height="860" viewBox="0 0 560 680">
  <defs>
    <linearGradient id="bg" x1="0" x2="1" y1="0" y2="1">
      <stop offset="0" stop-color="#334155"/>
      <stop offset=".58" stop-color="#f8fafc"/>
      <stop offset="1" stop-color="#f59e0b"/>
    </linearGradient>
    <filter id="shadow" x="-20%" y="-20%" width="140%" height="140%">
      <feDropShadow dx="0" dy="22" stdDeviation="20" flood-color="#0f172a" flood-opacity=".18"/>
    </filter>
  </defs>
  <rect width="560" height="680" rx="34" fill="#f4f4f5"/>
  <rect x="28" y="28" width="504" height="470" rx="30" fill="url(#bg)"/>
  <g filter="url(#shadow)">
      <path d="M176 174c7-56 45-88 104-88s97 32 104 88" stroke="white" stroke-width="22" fill="none" opacity=".92"/>
      <rect x="150" y="154" width="260" height="240" rx="34" fill="white" opacity=".96"/>
      <rect x="186" y="194" width="188" height="154" rx="22" fill="#f59e0b" opacity=".88"/>
      <path d="M220 238h120M220 282h92" stroke="white" stroke-width="12" stroke-linecap="round"/></g>
  <rect x="54" y="54" width="132" height="34" rx="17" fill="#111827" opacity=".86"/>
  <text x="120" y="77" text-anchor="middle" font-family="Arial, sans-serif" font-size="17" font-weight="800" fill="white">DEWU VERIFIED</text>
  <text x="54" y="552" font-family="Arial, sans-serif" font-size="25" font-weight="900" fill="#09090b">Herschel</text>
  <text x="54" y="590" font-family="Arial, sans-serif" font-size="34" font-weight="900" fill="#09090b">Little America</text>
  <text x="54" y="626" font-family="Arial, sans-serif" font-size="24" font-weight="700" fill="#71717a">Backpack</text>
  <circle cx="476" cy="584" r="38" fill="#1ee8d6"/>
  <text x="476" y="592" text-anchor="middle" font-family="Arial, sans-serif" font-size="18" font-weight="900" fill="#09090b">95</text>
</svg>