<svg xmlns="http://www.w3.org/2000/svg" width="720" height="860" viewBox="0 0 560 680">
  <defs>
    <linearGradient id="bg" x1="0" x2="1" y1="0" y2="1">
      <stop offset="0" stop-color="#0f172a"/>
      <stop offset=".58" stop-color="#f8fafc"/>
      <stop offset="1" stop-color="#94a3b8"/>
    </linearGradient>
    <filter id="shadow" x="-20%" y="-20%" width="140%" height="140%">
      <feDropShadow dx="0" dy="22" stdDeviation="20" flood-color="#0f172a" flood-opacity=".18"/>
    </filter>
  </defs>
  <rect width="560" height="680" rx="34" fill="#f4f4f5"/>
  <rect x="28" y="28" width="504" height="470" rx="30" fill="url(#bg)"/>
  <g filter="url(#shadow)">
      <rect x="238" y="58" width="84" height="110" rx="24" fill="white" opacity=".9"/>
      <rect x="238" y="332" width="84" height="110" rx="24" fill="white" opacity=".9"/>
      <circle cx="280" cy="250" r="105" fill="white" opacity=".96"/>
      <circle cx="280" cy="250" r="74" fill="#111827"/>
      <path d="M280 205v52l38 24" stroke="#94a3b8" stroke-width="10" stroke-linecap="round"/>
      <circle cx="280" cy="250" r="8" fill="#94a3b8"/></g>
  <rect x="54" y="54" width="132" height="34" rx="17" fill="#111827" opacity=".86"/>
  <text x="120" y="77" text-anchor="middle" font-family="Arial, sans-serif" font-size="17" font-weight="800" fill="white">DEWU VERIFIED</text>
  <text x="54" y="552" font-family="Arial, sans-serif" font-size="25" font-weight="900" fill="#09090b">G-SHOCK</text>
  <text x="54" y="590" font-family="Arial, sans-serif" font-size="34" font-weight="900" fill="#09090b">GA-2100</text>
  <text x="54" y="626" font-family="Arial, sans-serif" font-size="24" font-weight="700" fill="#71717a">Black Watch</text>
  <circle cx="476" cy="584" r="38" fill="#1ee8d6"/>
  <text x="476" y="592" text-anchor="middle" font-family="Arial, sans-serif" font-size="18" font-weight="900" fill="#09090b">95</text>
</svg>